<svg version="1.1" id="Layer_1" xmlns="http://www.w3.org/2000/svg" xmlns:xlink="http://www.w3.org/1999/xlink" x="0px" y="0px"
	 width="100%" viewBox="0 0 362 82" enable-background="new 0 0 362 82" xml:space="preserve">
<path fill="#030303" opacity="1.000000" stroke="none" 
	d="
M245.000000,83.000000 
	C163.333359,83.000000 82.166718,83.000000 1.000054,83.000000 
	C1.000036,55.666698 1.000036,28.333399 1.000018,1.000073 
	C121.666595,1.000049 242.333191,1.000049 362.999817,1.000024 
	C362.999878,28.333258 362.999878,55.666515 362.999939,82.999886 
	C323.833344,83.000000 284.666656,83.000000 245.000000,83.000000 
M121.035599,59.451420 
	C120.873718,58.108692 120.711838,56.765961 120.549957,55.423233 
	C120.083160,55.487206 119.616356,55.551178 119.149559,55.615154 
	C119.435638,57.077465 119.721710,58.539780 119.968956,60.936535 
	C119.968956,65.875977 119.968956,70.815414 119.968956,75.275192 
	C123.085854,75.124542 125.966263,74.985313 129.732925,74.803261 
	C124.377525,70.669411 121.128036,66.280327 121.035599,59.451420 
M95.889992,46.281734 
	C96.721176,46.249214 97.554222,46.241779 98.383278,46.180450 
	C113.174278,45.086239 120.950020,32.756905 115.641556,18.823088 
	C112.562424,10.740912 101.128708,5.716428 92.240753,8.976206 
	C89.526466,8.984431 86.812172,8.992656 83.656273,8.234725 
	C79.744255,8.234725 75.832245,8.234725 71.872177,8.234725 
	C71.872177,30.890793 71.872177,53.381931 71.167244,76.190552 
	C69.690155,76.440132 68.213066,76.689713 66.735985,76.939293 
	C66.788513,77.245811 66.841049,77.552338 66.893585,77.858856 
	C68.596016,77.559715 70.298447,77.260574 72.884033,77.223160 
	C76.253975,77.193741 79.623909,77.164330 83.578606,77.522842 
	C85.109634,77.522842 86.640663,77.522842 88.171692,77.522842 
	C88.190147,77.323067 88.208595,77.123291 88.227043,76.923515 
	C86.745697,76.621078 85.264359,76.318634 83.719711,75.078766 
	C83.782806,65.678925 83.845901,56.279079 84.817345,46.789009 
	C88.212082,46.590794 91.606812,46.392574 95.889992,46.281734 
M126.840019,10.423046 
	C116.109497,22.737879 119.054909,37.518566 133.730835,44.528778 
	C136.710648,45.952133 139.923523,46.883968 143.016739,48.074120 
	C155.423950,52.847931 158.192947,62.468102 150.318710,73.334740 
	C150.258972,73.417191 150.548798,73.752937 150.831573,74.238647 
	C151.503235,73.903214 152.262283,73.655853 152.867004,73.202606 
	C163.610397,65.150307 166.561447,44.464581 151.003403,36.148495 
	C146.060120,33.506222 140.628754,31.792221 135.495850,29.486258 
	C126.248505,25.331871 124.417961,20.598047 128.789139,10.945270 
	C128.800446,10.376354 128.811752,9.807440 128.823059,9.238527 
	C128.364792,9.514696 127.906517,9.790865 126.840019,10.423046 
M25.638224,7.742557 
	C27.779484,7.742557 29.920744,7.742557 32.062004,7.742557 
	C32.056095,7.541120 32.050186,7.339683 32.044281,7.138245 
	C29.624138,7.274520 27.203997,7.410794 23.954208,7.322397 
	C20.331656,7.322397 16.709103,7.322397 12.993234,7.322397 
	C12.993234,24.185314 12.780761,40.669453 13.069747,57.144791 
	C13.254904,67.700684 19.115908,74.421249 29.461916,76.948769 
	C31.869469,77.536934 34.386459,77.677139 36.853096,78.023453 
	C36.926678,77.532852 37.000259,77.042252 37.073841,76.551651 
	C36.540627,76.263344 36.030376,75.917053 35.470760,75.695389 
	C26.681843,72.214027 24.719351,69.423836 24.714455,60.025738 
	C24.705347,42.541122 24.747841,25.056480 25.638224,7.742557 
M214.076996,8.271832 
	C209.199188,8.271832 204.321365,8.271832 199.443558,8.271832 
	C209.091766,11.027696 210.010834,19.264620 211.678711,27.014002 
	C211.887604,21.749289 211.949066,16.601990 211.860214,11.457284 
	C211.819244,9.084889 212.337784,7.844812 214.988541,9.883565 
	C219.512238,20.380705 224.113983,30.845438 228.496429,41.401226 
	C229.416779,43.618004 229.907959,46.163097 229.949509,48.568089 
	C230.112381,57.994820 230.016098,67.426025 230.016098,77.054031 
	C234.068939,77.054031 237.809067,77.054031 241.919617,77.054031 
	C241.919617,65.124741 241.934265,53.371922 241.884933,41.619373 
	C241.881821,40.876713 241.419052,40.119171 241.104446,39.397160 
	C236.689621,29.264816 232.263367,19.137449 227.924942,8.464973 
	C227.615585,8.376172 227.306244,8.287370 226.084702,8.064534 
	C222.399673,8.133199 218.714661,8.201863 214.076996,8.271832 
M266.237061,56.499763 
	C266.237061,63.276127 266.237061,70.052490 266.237061,76.883705 
	C270.426086,76.883705 274.279938,76.883705 277.811920,76.883705 
	C277.811920,53.783363 277.811920,31.061552 277.811920,8.248828 
	C273.555237,8.248828 269.621460,8.248828 266.237061,8.248828 
	C266.237061,24.129314 266.237061,39.814552 266.237061,56.499763 
M193.166138,64.497787 
	C193.166138,45.763920 193.166138,27.030056 193.166138,8.205763 
	C188.642349,8.205763 184.584167,8.205763 181.114487,8.205763 
	C181.114487,31.300518 181.114487,54.090771 181.114487,76.864952 
	C185.560089,76.864952 189.413803,76.864952 193.166138,76.864952 
	C193.166138,72.806976 193.166138,69.151512 193.166138,64.497787 
M327.594971,49.491318 
	C327.594971,35.746628 327.594971,22.001942 327.594971,8.200796 
	C323.398926,8.200796 319.504547,8.200796 315.800507,8.200796 
	C315.800507,19.837912 315.800507,31.160763 315.800507,42.483612 
	C315.800507,53.926914 315.800507,65.370216 315.800507,77.040588 
	C319.784393,77.040588 323.533661,77.040588 327.594971,77.040588 
	C327.594971,68.072601 327.594971,59.283096 327.594971,49.491318 
M352.180359,14.340591 
	C354.456177,18.715055 356.732025,23.089518 358.799255,27.063015 
	C358.799255,21.095770 358.799255,14.664642 358.799255,8.106346 
	C352.900757,8.106346 347.233124,8.106346 342.150757,8.106346 
	C345.117493,9.875220 348.405975,11.835917 352.180359,14.340591 
M58.018246,40.499954 
	C58.018246,29.831154 58.018246,19.162355 58.018246,8.493556 
	C57.446232,8.509962 56.874222,8.526368 56.302208,8.542775 
	C56.302208,27.145128 56.302208,45.747482 56.302208,64.349838 
	C56.874233,64.364182 57.446255,64.378525 58.018280,64.392868 
	C58.018280,56.761883 58.018280,49.130898 58.018246,40.499954 
M309.160095,64.626083 
	C309.160095,62.231163 309.160095,59.836243 309.160095,57.441322 
	C306.309448,66.480919 302.521240,74.345947 292.417816,76.895920 
	C297.970520,76.895920 303.523224,76.895920 309.160095,76.895920 
	C309.160095,72.883873 309.160095,69.236443 309.160095,64.626083 
M354.331299,69.725235 
	C350.860138,72.291550 347.389008,74.857872 344.554108,76.953781 
	C348.956482,76.953781 354.478821,76.953781 359.850983,76.953781 
	C359.850983,70.553352 359.850983,64.469368 359.850983,57.974514 
	C358.009064,62.047653 356.401672,65.602112 354.331299,69.725235 
M343.992950,41.546394 
	C343.992950,38.228764 343.992950,34.911133 343.992950,31.593504 
	C341.768402,37.827152 337.582123,40.919056 331.051636,41.463799 
	C340.112244,41.823055 341.449036,48.876377 343.992950,56.496876 
	C343.992950,50.787895 343.992950,46.655090 343.992950,41.546394 
M162.964844,21.698294 
	C163.217224,21.955618 163.469604,22.212944 163.721985,22.470272 
	C163.804504,22.362663 163.941498,22.264374 163.961716,22.146109 
	C165.060577,15.721194 168.024048,10.667367 175.438370,8.199373 
	C170.577805,8.199373 166.860672,8.199373 162.955017,8.199373 
	C162.955017,12.619204 162.955017,16.730238 162.964844,21.698294 
M153.302094,7.914980 
	C151.669464,7.633880 150.036835,7.352780 149.451569,7.252009 
	C151.869064,11.764235 154.419540,16.524639 156.795395,20.959129 
	C156.795395,16.610243 156.795395,11.747410 156.795395,6.842796 
	C155.860275,7.198082 154.957169,7.541200 153.302094,7.914980 
M359.607269,51.632481 
	C359.419098,53.350159 359.230927,55.067833 359.042755,56.785511 
	C359.609955,56.797829 360.177155,56.810143 360.744354,56.822460 
	C360.617706,55.097702 360.491058,53.372948 359.607269,51.632481 
M11.394399,7.464911 
	C11.394399,7.464911 11.738247,7.623577 11.738247,7.623577 
	C11.738247,7.623577 11.667830,7.310871 11.394399,7.464911 
z"/>
<path fill="#FAFAFA" opacity="1.000000" stroke="none" 
	d="
M227.839890,9.008871 
	C232.263367,19.137449 236.689621,29.264816 241.104446,39.397160 
	C241.419052,40.119171 241.881821,40.876713 241.884933,41.619373 
	C241.934265,53.371922 241.919617,65.124741 241.919617,77.054031 
	C237.809067,77.054031 234.068939,77.054031 230.016098,77.054031 
	C230.016098,67.426025 230.112381,57.994820 229.949509,48.568089 
	C229.907959,46.163097 229.416779,43.618004 228.496429,41.401226 
	C224.113983,30.845438 219.512238,20.380705 215.019943,9.303278 
	C215.051346,8.722990 215.029633,8.270528 215.029633,8.270528 
	C218.714661,8.201863 222.399673,8.133199 226.637436,8.307131 
	C227.368515,8.756852 227.585083,8.909900 227.839890,9.008871 
z"/>
<path fill="#F8F8F8" opacity="1.000000" stroke="none" 
	d="
M266.237061,55.999779 
	C266.237061,39.814552 266.237061,24.129314 266.237061,8.248828 
	C269.621460,8.248828 273.555237,8.248828 277.811920,8.248828 
	C277.811920,31.061552 277.811920,53.783363 277.811920,76.883705 
	C274.279938,76.883705 270.426086,76.883705 266.237061,76.883705 
	C266.237061,70.052490 266.237061,63.276127 266.237061,55.999779 
z"/>
<path fill="#F6F6F6" opacity="1.000000" stroke="none" 
	d="
M193.166138,64.996918 
	C193.166138,69.151512 193.166138,72.806976 193.166138,76.864952 
	C189.413803,76.864952 185.560089,76.864952 181.114487,76.864952 
	C181.114487,54.090771 181.114487,31.300518 181.114487,8.205763 
	C184.584167,8.205763 188.642349,8.205763 193.166138,8.205763 
	C193.166138,27.030056 193.166138,45.763920 193.166138,64.996918 
z"/>
<path fill="#F5F5F5" opacity="1.000000" stroke="none" 
	d="
M327.594971,49.992455 
	C327.594971,59.283096 327.594971,68.072601 327.594971,77.040588 
	C323.533661,77.040588 319.784393,77.040588 315.800507,77.040588 
	C315.800507,65.370216 315.800507,53.926914 315.800507,42.483612 
	C315.800507,31.160763 315.800507,19.837912 315.800507,8.200796 
	C319.504547,8.200796 323.398926,8.200796 327.594971,8.200796 
	C327.594971,22.001942 327.594971,35.746628 327.594971,49.992455 
z"/>
<path fill="#FBFBFB" opacity="1.000000" stroke="none" 
	d="
M71.872177,75.873070 
	C71.872177,53.381931 71.872177,30.890793 71.872177,8.234725 
	C75.832245,8.234725 79.744255,8.234725 83.706268,9.058771 
	C83.843040,21.581751 83.929832,33.280682 83.953270,45.296974 
	C83.896286,46.035969 83.902641,46.457603 83.909004,46.879238 
	C83.845901,56.279079 83.782806,65.678925 83.537689,75.662933 
	C83.135170,76.502319 83.014565,76.798256 82.993851,77.134918 
	C79.623909,77.164330 76.253975,77.193741 72.477310,76.812279 
	C72.004463,76.225296 71.938324,76.049187 71.872177,75.873070 
z"/>
<path fill="#FDFDFD" opacity="1.000000" stroke="none" 
	d="
M24.768854,7.571851 
	C24.747841,25.056480 24.705347,42.541122 24.714455,60.025738 
	C24.719351,69.423836 26.681843,72.214027 35.470760,75.695389 
	C36.030376,75.917053 36.540627,76.263344 37.073841,76.551651 
	C37.000259,77.042252 36.926678,77.532852 36.853096,78.023453 
	C34.386459,77.677139 31.869469,77.536934 29.461916,76.948769 
	C19.115908,74.421249 13.254904,67.700684 13.069747,57.144791 
	C12.780761,40.669453 12.993234,24.185314 12.993234,7.322397 
	C16.709103,7.322397 20.331656,7.322397 24.381626,7.445968 
	C24.809042,7.569539 24.768854,7.571851 24.768854,7.571851 
z"/>
<path fill="#F8F8F8" opacity="1.000000" stroke="none" 
	d="
M128.250122,11.238051 
	C124.417961,20.598047 126.248505,25.331871 135.495850,29.486258 
	C140.628754,31.792221 146.060120,33.506222 151.003403,36.148495 
	C166.561447,44.464581 163.610397,65.150307 152.867004,73.202606 
	C152.262283,73.655853 151.503235,73.903214 150.831573,74.238647 
	C150.548798,73.752937 150.258972,73.417191 150.318710,73.334740 
	C158.192947,62.468102 155.423950,52.847931 143.016739,48.074120 
	C139.923523,46.883968 136.710648,45.952133 133.730835,44.528778 
	C119.054909,37.518566 116.109497,22.737879 127.330841,10.547213 
	C127.964500,10.860271 128.107315,11.049161 128.250122,11.238051 
z"/>
<path fill="#020202" opacity="1.000000" stroke="none" 
	d="
M84.016617,44.979614 
	C83.929832,33.280682 83.843040,21.581751 83.927071,9.441850 
	C86.812172,8.992656 89.526466,8.984431 93.059578,8.968151 
	C98.788399,9.991302 102.296509,13.234985 102.896187,17.827259 
	C103.738747,24.279562 103.668472,30.950615 103.104759,37.451477 
	C102.738129,41.679520 99.579475,44.469032 94.624802,45.043953 
	C90.785522,44.961319 87.401070,44.970467 84.016617,44.979614 
z"/>
<path fill="#F8F8F8" opacity="1.000000" stroke="none" 
	d="
M95.079620,45.135731 
	C99.579475,44.469032 102.738129,41.679520 103.104759,37.451477 
	C103.668472,30.950615 103.738747,24.279562 102.896187,17.827259 
	C102.296509,13.234985 98.788399,9.991302 93.515427,8.950237 
	C101.128708,5.716428 112.562424,10.740912 115.641556,18.823088 
	C120.950020,32.756905 113.174278,45.086239 98.383278,46.180450 
	C97.554222,46.241779 96.721176,46.249214 95.487778,45.975044 
	C95.083580,45.490814 95.081596,45.313271 95.079620,45.135731 
z"/>
<path fill="#F7F7F7" opacity="1.000000" stroke="none" 
	d="
M351.937378,14.068604 
	C348.405975,11.835917 345.117493,9.875220 342.150757,8.106346 
	C347.233124,8.106346 352.900757,8.106346 358.799255,8.106346 
	C358.799255,14.664642 358.799255,21.095770 358.799255,27.063015 
	C356.732025,23.089518 354.456177,18.715055 351.937378,14.068604 
z"/>
<path fill="#4D4D4D" opacity="1.000000" stroke="none" 
	d="
M58.018265,40.999935 
	C58.018280,49.130898 58.018280,56.761883 58.018280,64.392868 
	C57.446255,64.378525 56.874233,64.364182 56.302208,64.349838 
	C56.302208,45.747482 56.302208,27.145128 56.302208,8.542775 
	C56.874222,8.526368 57.446232,8.509962 58.018246,8.493556 
	C58.018246,19.162355 58.018246,29.831154 58.018265,40.999935 
z"/>
<path fill="#F8F8F8" opacity="1.000000" stroke="none" 
	d="
M309.160095,65.107544 
	C309.160095,69.236443 309.160095,72.883873 309.160095,76.895920 
	C303.523224,76.895920 297.970520,76.895920 292.417816,76.895920 
	C302.521240,74.345947 306.309448,66.480919 309.160095,57.441322 
	C309.160095,59.836243 309.160095,62.231163 309.160095,65.107544 
z"/>
<path fill="#F8F8F8" opacity="1.000000" stroke="none" 
	d="
M354.562805,69.440903 
	C356.401672,65.602112 358.009064,62.047653 359.850983,57.974514 
	C359.850983,64.469368 359.850983,70.553352 359.850983,76.953781 
	C354.478821,76.953781 348.956482,76.953781 344.554108,76.953781 
	C347.389008,74.857872 350.860138,72.291550 354.562805,69.440903 
z"/>
<path fill="#EEEEEE" opacity="1.000000" stroke="none" 
	d="
M343.992950,42.034340 
	C343.992950,46.655090 343.992950,50.787895 343.992950,56.496876 
	C341.449036,48.876377 340.112244,41.823055 331.051636,41.463799 
	C337.582123,40.919056 341.768402,37.827152 343.992950,31.593504 
	C343.992950,34.911133 343.992950,38.228764 343.992950,42.034340 
z"/>
<path fill="#E2E2E2" opacity="1.000000" stroke="none" 
	d="
M214.553314,8.271179 
	C215.029633,8.270528 215.051346,8.722990 214.987793,8.940383 
	C212.337784,7.844812 211.819244,9.084889 211.860214,11.457284 
	C211.949066,16.601990 211.887604,21.749289 211.678711,27.014002 
	C210.010834,19.264620 209.091766,11.027696 199.443558,8.271832 
	C204.321365,8.271832 209.199188,8.271832 214.553314,8.271179 
z"/>
<path fill="#F6F6F6" opacity="1.000000" stroke="none" 
	d="
M162.959930,21.269783 
	C162.955017,16.730238 162.955017,12.619204 162.955017,8.199373 
	C166.860672,8.199373 170.577805,8.199373 175.438370,8.199373 
	C168.024048,10.667367 165.060577,15.721194 163.961716,22.146109 
	C163.941498,22.264374 163.804504,22.362663 163.721985,22.470270 
	C163.469604,22.212944 163.217224,21.955618 162.959930,21.269783 
z"/>
<path fill="#F2F2F2" opacity="1.000000" stroke="none" 
	d="
M120.801849,60.244793 
	C121.128036,66.280327 124.377525,70.669411 129.732925,74.803261 
	C125.966263,74.985313 123.085854,75.124542 119.968956,75.275192 
	C119.968956,70.815414 119.968956,65.875977 120.159248,60.620407 
	C120.349541,60.304276 120.801849,60.244793 120.801849,60.244793 
z"/>
<path fill="#EBEBEB" opacity="1.000000" stroke="none" 
	d="
M153.678085,7.899649 
	C154.957169,7.541200 155.860275,7.198082 156.795395,6.842796 
	C156.795395,11.747410 156.795395,16.610243 156.795395,20.959129 
	C154.419540,16.524639 151.869064,11.764235 149.451569,7.252009 
	C150.036835,7.352780 151.669464,7.633880 153.678085,7.899649 
z"/>
<path fill="#969696" opacity="1.000000" stroke="none" 
	d="
M94.624802,45.043953 
	C95.081596,45.313271 95.083580,45.490814 95.043556,45.931358 
	C91.606812,46.392574 88.212082,46.590794 84.363174,46.834122 
	C83.902641,46.457603 83.896286,46.035969 83.953270,45.296974 
	C87.401070,44.970467 90.785522,44.961319 94.624802,45.043953 
z"/>
<path fill="#5B5B5B" opacity="1.000000" stroke="none" 
	d="
M359.985840,51.640335 
	C360.491058,53.372948 360.617706,55.097702 360.744354,56.822460 
	C360.177155,56.810143 359.609955,56.797829 359.042755,56.785511 
	C359.230927,55.067833 359.419098,53.350159 359.985840,51.640335 
z"/>
<path fill="#969696" opacity="1.000000" stroke="none" 
	d="
M71.519714,76.031815 
	C71.938324,76.049187 72.004463,76.225296 72.035736,76.681412 
	C70.298447,77.260574 68.596016,77.559715 66.893585,77.858856 
	C66.841049,77.552338 66.788513,77.245811 66.735985,76.939293 
	C68.213066,76.689713 69.690155,76.440132 71.519714,76.031815 
z"/>
<path fill="#969696" opacity="1.000000" stroke="none" 
	d="
M83.286224,77.328880 
	C83.014565,76.798256 83.135170,76.502319 83.569336,76.131653 
	C85.264359,76.318634 86.745697,76.621078 88.227043,76.923515 
	C88.208595,77.123291 88.190147,77.323067 88.171692,77.522842 
	C86.640663,77.522842 85.109634,77.522842 83.286224,77.328880 
z"/>
<path fill="#4B4B4B" opacity="1.000000" stroke="none" 
	d="
M120.918724,59.848106 
	C120.801849,60.244793 120.349541,60.304276 120.178665,60.153183 
	C119.721710,58.539780 119.435638,57.077465 119.149559,55.615154 
	C119.616356,55.551178 120.083160,55.487206 120.549957,55.423233 
	C120.711838,56.765961 120.873718,58.108692 120.918724,59.848106 
z"/>
<path fill="#9C9C9C" opacity="1.000000" stroke="none" 
	d="
M25.203539,7.657204 
	C24.768854,7.571851 24.809042,7.569539 24.796448,7.558304 
	C27.203997,7.410794 29.624138,7.274520 32.044281,7.138245 
	C32.050186,7.339683 32.056095,7.541120 32.062004,7.742557 
	C29.920744,7.742557 27.779484,7.742557 25.203539,7.657204 
z"/>
<path fill="#F8F8F8" opacity="1.000000" stroke="none" 
	d="
M127.634956,10.369205 
	C127.906517,9.790865 128.364792,9.514696 128.823059,9.238525 
	C128.811752,9.807440 128.800446,10.376354 128.519623,11.091660 
	C128.107315,11.049161 127.964500,10.860271 127.634956,10.369205 
z"/>
<path fill="#9C9C9C" opacity="1.000000" stroke="none" 
	d="
M11.531115,7.387891 
	C11.667830,7.310871 11.738247,7.623577 11.738247,7.623577 
	C11.738247,7.623577 11.394399,7.464911 11.531115,7.387891 
z"/>
<path fill="#E2E2E2" opacity="1.000000" stroke="none" 
	d="
M227.882416,8.736921 
	C227.585083,8.909900 227.368515,8.756852 227.093536,8.374147 
	C227.306244,8.287370 227.615585,8.376172 227.882416,8.736921 
z"/>
</svg>